<svg xmlns="http://www.w3.org/2000/svg" xmlns:xlink="http://www.w3.org/1999/xlink" viewBox="0 0 46 43" fill="#fff" fill-rule="evenodd" stroke="#000" stroke-linecap="round" stroke-linejoin="round"><style><![CDATA[.B{fill:#000}.C{stroke:#fff}.D{stroke-linejoin:miter}.E{stroke-width:.787}.F{stroke:none}.G{stroke-linecap:square}]]></style><use xlink:href="#A" x=".5" y=".5"/><symbol id="A" overflow="visible"><g class="B"><path d="M6.293 36.972v-6.293h33.038v6.293H6.293z" class="C D E"/><path d="M44.838 25.172v6.293l-5.506 5.506v-6.293H6.293z" class="F"/></g><path d="M44.838 25.172v6.293l-5.506 5.506v-6.293H6.293" fill="none" class="C D E G"/><path d="M6.686 25.172h38.152z" class="B F"/><path d="M6.686 25.172h38.152" fill="none" class="C D E G"/><path d="M39.332 30.678l5.506-5.506z" class="B F"/><g class="C D E"><path d="M39.332 30.678l5.506-5.506" fill="none" class="G"/><g class="B"><path d="M39.331 30.679V5.9H6.293v24.779h33.038z"/><path d="M39.331 30.679l5.506-5.506V0H12.193l-5.9 5.9h33.038v24.779zm-2.753-2.753V8.653H9.44v19.273h27.139z"/></g></g><path d="M22.812 18.093zM39.331 5.9L44.838 0z" class="B F"/><g class="C D E"><path d="M39.332 5.9L44.838 0" fill="none" class="G"/><g class="B"><path d="M37.758 41.298v-3.54H0l4.327-4.327h37.758v3.54l-4.326 4.327z"/><path d="M37.758 37.758v3.54H0v-3.54h37.758z"/></g></g><path d="M37.758 37.759l4.326-4.327z" class="B F"/><path d="M37.758 37.759l4.326-4.327" fill="none" class="C D E G"/></symbol></svg>